<svg id="Слой_1" data-name="Слой 1" xmlns="http://www.w3.org/2000/svg" xmlns:xlink="http://www.w3.org/1999/xlink" viewBox="0 0 284.67 72"><defs><style>.cls-1{fill:url(#Безымянный_градиент_11);}.cls-2{fill:#1e5c96;}.cls-3{font-size:20px;fill:#093;font-family:FiraSans-Regular, Fira Sans;letter-spacing:0.01em;}.cls-4{letter-spacing:-0.02em;}.cls-5{letter-spacing:0.03em;}</style><linearGradient id="Безымянный_градиент_11" x1="44.74" y1="66.74" x2="84.24" y2="27.24" gradientUnits="userSpaceOnUse"><stop offset="0" stop-color="#edcc26"/><stop offset="0.26" stop-color="#edc323"/><stop offset="0.67" stop-color="#eeac1c"/><stop offset="1" stop-color="#ef9515"/></linearGradient></defs><title>Монтажная область 1</title><path class="cls-1" d="M23,45s23.67-28.67,83,4C106,49,65,74,23,45Z"/><path class="cls-2" d="M117.35,31.27l2.61-2a18.77,18.77,0,0,0-2.44-4.82l-2.77,3,2.36-3.52a19,19,0,0,0-3.9-3.8l-1.91,4.75,1.18-5.26A19.48,19.48,0,0,0,106.84,17l-.18,4.46a3.23,3.23,0,0,1,0,.44L106.47,24l-.17-1.56a3,3,0,0,1,0-.6L106,16.65l-6.83-2.83L102,25,92.17,11,82,9.65,97,28.32,64.5,8.65,46.84,11,93,32.15,28.34,17.65C9,30.32,18,39.65,18,39.65c26.67-19.33,79,0,79,0l1.83-.36A8.38,8.38,0,0,1,97.62,35a9.44,9.44,0,0,1,18.85,0,7.92,7.92,0,0,1,0,.85l.75-.15,3.83-1.5a22.18,22.18,0,0,0-.87-4.35Z"/><text class="cls-3" transform="translate(125.33 43)">Б<tspan class="cls-4" x="11.68" y="0">у</tspan><tspan class="cls-5" x="21.22" y="0">дАгроПлюс</tspan></text></svg>